<svg xmlns="http://www.w3.org/2000/svg" version="1.1" xmlns:xlink="http://www.w3.org/1999/xlink" xmlns:svgjs="http://svgjs.dev/svgjs" width="1000" height="623" viewBox="0 0 1000 623"><g transform="matrix(1,0,0,1,-0.6060606060606233,0.2522267206477409)"><svg viewBox="0 0 396 247" data-background-color="#131324" preserveAspectRatio="xMidYMid meet" height="623" width="1000" xmlns="http://www.w3.org/2000/svg" xmlns:xlink="http://www.w3.org/1999/xlink"><g id="tight-bounds" transform="matrix(1,0,0,1,0.2400000000000091,-0.09999999999999432)"><svg viewBox="0 0 395.52 247.2" height="247.2" width="395.52"><g><svg></svg></g><g><svg viewBox="0 0 395.52 247.2" height="247.2" width="395.52"><g><path xmlns="http://www.w3.org/2000/svg" d="M55.039 247.2l26.403-45.732h4.688l-23.931 41.45h271.122l-23.931-41.45 4.688 0 26.403 45.732zM197.76 0l26.403 45.732-4.687 0-21.716-37.613-21.716 37.613-4.687 0z" fill="#cebbbb" fill-rule="nonzero" stroke="none" stroke-width="1" stroke-linecap="butt" stroke-linejoin="miter" stroke-miterlimit="10" stroke-dasharray="" stroke-dashoffset="0" font-family="none" font-weight="none" font-size="none" text-anchor="none" style="mix-blend-mode: normal" data-fill-palette-color="tertiary"></path></g><g transform="matrix(1,0,0,1,19.11349030470916,67.97999999999999)"><svg viewBox="0 0 357.29301939058166 111.24" height="111.24" width="357.29301939058166"><g><svg viewBox="0 0 357.29301939058166 111.24" height="111.24" width="357.29301939058166"><g><svg viewBox="0 0 357.29301939058166 111.24" height="111.24" width="357.29301939058166"><g><svg viewBox="0 0 357.29301939058166 111.24" height="111.24" width="357.29301939058166"><g><svg viewBox="0 0 357.29301939058166 111.24" height="111.24" width="357.29301939058166"><g><svg viewBox="0 0 357.29301939058166 111.24" height="111.24" width="357.29301939058166"><g transform="matrix(1,0,0,1,0,0)"><svg width="357.29301939058166" viewBox="1.2000000476837158 -35.5 115.94000244140625 36.099998474121094" height="111.24" data-palette-color="#ffffff"><path d="M10.35-21.1L13.65-21.1Q16.55-21.1 17.88-22.2 19.2-23.3 19.2-24.9L19.2-24.9 19.2-25.25Q19.2-27.15 17.93-28.28 16.65-29.4 14.3-29.4L14.3-29.4Q12.15-29.4 10.28-28.33 8.4-27.25 7.1-25.25L7.1-25.25 2.35-29.65Q3.35-30.95 4.55-32.02 5.75-33.1 7.2-33.88 8.65-34.65 10.48-35.08 12.3-35.5 14.6-35.5L14.6-35.5Q17.45-35.5 19.75-34.85 22.05-34.2 23.68-32.98 25.3-31.75 26.2-30.05 27.1-28.35 27.1-26.25L27.1-26.25Q27.1-24.6 26.55-23.25 26-21.9 25.08-20.9 24.15-19.9 22.93-19.28 21.7-18.65 20.3-18.4L20.3-18.4 20.3-18.1Q23.5-17.55 25.63-15.43 27.75-13.3 27.75-9.7L27.75-9.7Q27.75-7.35 26.78-5.45 25.8-3.55 24.03-2.2 22.25-0.85 19.73-0.13 17.2 0.6 14.1 0.6L14.1 0.6Q11.45 0.6 9.43 0.05 7.4-0.5 5.85-1.43 4.3-2.35 3.18-3.58 2.05-4.8 1.2-6.1L1.2-6.1 6.75-10.4Q7.9-8.25 9.63-6.88 11.35-5.5 14.25-5.5L14.25-5.5Q16.95-5.5 18.4-6.75 19.85-8 19.85-10.2L19.85-10.2 19.85-10.55Q19.85-12.7 18.2-13.78 16.55-14.85 13.6-14.85L13.6-14.85 10.35-14.85 10.35-21.1ZM56.25 0L33.75 0 33.75-5.55 41.25-5.55 41.25-29.35 33.75-29.35 33.75-34.9 56.25-34.9 56.25-29.35 48.75-29.35 48.75-5.55 56.25-5.55 56.25 0ZM87.15 0L64.59 0 64.59-34.9 72.15-34.9 72.15-6.15 87.15-6.15 87.15 0ZM117.14 0L94.59 0 94.59-34.9 102.14-34.9 102.14-6.15 117.14-6.15 117.14 0Z" opacity="1" transform="matrix(1,0,0,1,0,0)" fill="#ffffff" class="undefined-text-0" data-fill-palette-color="primary" id="text-0"></path></svg></g></svg></g></svg></g></svg></g><g></g></svg></g></svg></g></svg></g></svg></g><defs></defs></svg><rect width="395.52" height="247.2" fill="none" stroke="none" visibility="hidden"></rect></g></svg></g></svg>